<svg xmlns="http://www.w3.org/2000/svg" version="1.1" xmlns:xlink="http://www.w3.org/1999/xlink" xmlns:svgjs="http://svgjs.dev/svgjs" width="1000" height="1000" viewBox="0 0 1000 1000"><rect width="1000" height="1000" fill="#ffffff"></rect><g transform="matrix(0.7,0,0,0.7,149.57575757575756,424.8958317358044)"><svg viewBox="0 0 396 85" data-background-color="#636365" preserveAspectRatio="xMidYMid meet" height="214" width="1000" xmlns="http://www.w3.org/2000/svg" xmlns:xlink="http://www.w3.org/1999/xlink"><g id="tight-bounds" transform="matrix(1,0,0,1,0.2400000000000091,0.11584981613236778)"><svg viewBox="0 0 395.52 84.76830036773528" height="84.76830036773528" width="395.52"><g><svg viewBox="0 0 501.0006986261125 107.37504476533053" height="84.76830036773528" width="395.52"><g transform="matrix(1,0,0,1,103.50309862611262,33.18044737018808)"><svg viewBox="0 0 397.4975999999999 41.01415002495437" height="41.01415002495437" width="397.4975999999999"><g id="textblocktransform"><svg viewBox="0 0 397.4975999999999 41.01415002495437" height="41.01415002495437" width="397.4975999999999" id="textblock"><g><rect width="397.4975999999999" height="1.925754025814957" x="0" y="23.622871871151222" fill="#000000" opacity="1" stroke-width="0" stroke="transparent" fill-opacity="1" class="rect-o-0" data-fill-palette-color="primary" rx="1%" id="o-0" data-palette-color="#ffffff"></rect></g><g transform="matrix(1,0,0,1,0.9887999999999693,0)"><svg viewBox="0 0 395.52 21.354313463777583" height="21.354313463777583" width="395.52"><g transform="matrix(1,0,0,1,0,0)"><svg width="395.52" viewBox="2.450000047683716 -32.54999923706055 621.3557739257812 33.54999923706055" height="21.354313463777583" data-palette-color="#ffffff"><path d="M13.25 1Q8 1 5.23-0.83 2.45-2.65 2.45-6.2L2.45-6.2Q2.45-8 3.68-9.18 4.9-10.35 6.85-10.35L6.85-10.35Q8-10.3 8.6-9.78 9.2-9.25 9.2-8.8L9.2-8.8Q9.2-8.75 8.7-8.45 8.2-8.15 7.8-7.55 7.4-6.95 7.4-5.9L7.4-5.9Q7.4-3.55 8.83-2.27 10.25-1 13.25-1L13.25-1Q15.3-1 16.85-1.8 18.4-2.6 19.23-3.93 20.05-5.25 20.05-6.7L20.05-6.7Q20.05-8.5 19.03-9.8 18-11.1 16.5-11.98 15-12.85 12.4-14L12.4-14Q9.4-15.35 7.55-16.45 5.7-17.55 4.4-19.38 3.1-21.2 3.1-23.9L3.1-23.9Q3.1-28.25 6.08-30.4 9.05-32.55 13.9-32.55L13.9-32.55Q17.7-32.55 20.53-30.95 23.35-29.35 23.35-26.25L23.35-26.25Q23.35-24.45 22.13-23.28 20.9-22.1 18.95-22.1L18.95-22.1Q17.8-22.15 17.2-22.68 16.6-23.2 16.6-23.65L16.6-23.65Q16.6-23.7 17.28-24 17.95-24.3 18.48-24.9 19-25.5 19-26.55L19-26.55Q19-28.4 17.57-29.45 16.15-30.5 13.95-30.5L13.95-30.5Q10.9-30.5 9.33-29.08 7.75-27.65 7.75-25.55L7.75-25.55Q7.75-23.8 8.7-22.63 9.65-21.45 11.75-20.3L11.75-20.3Q13.45-19.4 15.45-18.5L15.45-18.5Q18.65-17.05 20.53-15.85 22.4-14.65 23.68-12.7 24.95-10.75 24.95-7.85L24.95-7.85Q24.95-5.35 23.38-3.33 21.8-1.3 19.13-0.15 16.45 1 13.25 1L13.25 1ZM45.15 1Q40.9 1 37.37-1.03 33.85-3.05 31.77-6.8 29.7-10.55 29.7-15.55L29.7-15.55Q29.7-20.6 31.7-24.45 33.7-28.3 37.4-30.43 41.1-32.55 46.05-32.55L46.05-32.55Q50.35-32.55 53.7-30.83 57.05-29.1 57.05-25.5L57.05-25.5Q57.1-23.25 55.7-21.68 54.3-20.1 51.95-20.1L51.95-20.1Q51.05-20.1 50.42-20.43 49.8-20.75 49.5-21.2 49.2-21.65 49.25-21.9L49.25-21.9Q49.25-22 49.95-22.45 50.65-22.9 51.2-23.7 51.75-24.5 51.75-25.65L51.75-25.65Q51.75-27.9 50.22-29.23 48.7-30.55 46-30.55L46-30.55Q42.95-30.55 40.57-28.83 38.2-27.1 36.87-23.78 35.55-20.45 35.55-15.85L35.55-15.85Q35.55-11.85 36.97-8.58 38.4-5.3 41-3.38 43.6-1.45 46.95-1.45L46.95-1.45Q49.65-1.45 51.57-2.58 53.5-3.7 55.05-6.2L55.05-6.2Q55.3-6.65 55.75-6.65L55.75-6.65Q56.15-6.65 56.65-6.35L56.65-6.35Q57.45-5.8 57.45-5.25L57.45-5.25Q57.45-4.95 57.25-4.75L57.25-4.75Q55.35-2.35 53.67-1.13 52 0.1 50.05 0.55 48.1 1 45.15 1L45.15 1ZM77.5 1Q72.75 1 69.12-1.28 65.5-3.55 63.52-7.3 61.55-11.05 61.55-15.35L61.55-15.35Q61.55-20.6 63.92-24.5 66.3-28.4 70-30.48 73.7-32.55 77.5-32.55L77.5-32.55Q82.3-32.55 85.97-30.28 89.65-28 91.62-24.28 93.59-20.55 93.59-16.25L93.59-16.25Q93.59-11 91.2-7.08 88.8-3.15 85.05-1.07 81.3 1 77.5 1L77.5 1ZM77.45-1.2Q80.85-1.2 83.12-3.23 85.4-5.25 86.52-8.68 87.65-12.1 87.65-16.25L87.65-16.25Q87.65-20.1 86.5-23.33 85.35-26.55 83.05-28.48 80.75-30.4 77.45-30.4L77.45-30.4Q72.45-30.4 69.92-26.18 67.4-21.95 67.4-15.5L67.4-15.5Q67.4-11.6 68.52-8.35 69.65-5.1 71.9-3.15 74.15-1.2 77.45-1.2L77.45-1.2ZM95.19 0.15Q94.74 0.15 94.52-0.18 94.29-0.5 94.29-0.95L94.29-0.95Q94.34-1.7 94.59-1.85 94.84-2 95.19-2 95.54-2 95.64-2L95.64-2Q97.14-2 97.84-2.78 98.54-3.55 98.97-4.53 99.39-5.5 99.54-5.85L99.54-5.85 108.29-26.55Q108.59-27.3 108.59-27.75L108.59-27.75Q108.59-28.65 107.89-29.05 107.19-29.45 105.94-29.7L105.94-29.7Q105.09-29.85 104.89-30 104.69-30.15 104.69-30.85L104.69-30.85Q104.69-31.45 105.02-31.65 105.34-31.85 106.04-31.85L106.04-31.85Q108.54-31.85 110.02-31.48 111.49-31.1 112.59-29.98 113.69-28.85 114.64-26.55L114.64-26.55 123.04-5.85Q123.79-3.95 124.49-3 125.19-2.05 126.59-2L126.59-2 126.89-2Q127.39-2 127.59-1.83 127.79-1.65 127.84-0.95L127.84-0.95Q127.84-0.5 127.62-0.18 127.39 0.15 126.94 0.15L126.94 0.15Q123.74 0 121.44 0L121.44 0Q118.44 0 115.24 0.15L115.24 0.15Q114.79 0.15 114.57-0.18 114.34-0.5 114.34-0.95L114.34-0.95Q114.39-1.65 114.59-1.83 114.79-2 115.29-2L115.29-2Q116.99-2 117.69-2.33 118.39-2.65 118.39-3.5L118.39-3.5Q118.39-4.15 117.79-5.85L117.79-5.85 116.09-10 103.74-10Q102.49-6.9 102.32-6.4 102.14-5.9 102.14-5.85L102.14-5.85Q101.54-3.95 101.54-3.4L101.54-3.4Q101.54-2.55 102.29-2.27 103.04-2 105.14-2L105.14-2 105.44-2Q105.94-2 106.14-1.83 106.34-1.65 106.39-0.95L106.39-0.95Q106.39-0.5 106.17-0.18 105.94 0.15 105.49 0.15L105.49 0.15Q102.29 0 100.04 0L100.04 0Q98.44 0 95.19 0.15L95.19 0.15ZM109.99-25L104.69-12.15 115.19-12.15 110.14-25 109.99-25ZM128.54 0.15Q128.14 0.15 127.92-0.18 127.69-0.5 127.69-0.95L127.69-0.95Q127.74-1.7 127.99-1.85 128.24-2 128.94-2L128.94-2Q130.39-2 131.09-2.53 131.79-3.05 131.97-3.83 132.14-4.6 132.19-5.85L132.19-5.85 132.19-25.7Q132.14-26.95 131.97-27.73 131.79-28.5 131.09-29.03 130.39-29.55 128.94-29.55L128.94-29.55 128.64-29.55Q128.14-29.55 127.94-29.73 127.74-29.9 127.69-30.6L127.69-30.6Q127.69-31.05 127.92-31.38 128.14-31.7 128.54-31.7L128.54-31.7Q131.84-31.55 134.49-31.55L134.49-31.55Q137.49-31.55 140.74-31.7L140.74-31.7Q141.19-31.7 141.42-31.38 141.64-31.05 141.64-30.6L141.64-30.6Q141.59-29.85 141.32-29.7 141.04-29.55 140.39-29.55L140.39-29.55Q138.94-29.55 138.24-29.03 137.54-28.5 137.37-27.73 137.19-26.95 137.14-25.7L137.14-25.7 137.14-5.1Q137.24-4.05 137.39-3.48 137.54-2.9 138.29-2.43 139.04-1.95 140.64-2L140.64-2 145.14-2Q146.89-2.05 147.79-2.58 148.69-3.1 149.22-4.2 149.74-5.3 150.49-7.8L150.49-7.8Q150.84-8.7 152.19-8.5L152.19-8.5Q152.64-8.4 153.04-8.1 153.44-7.8 153.39-7.35L153.39-7.35 152.39-1.05Q152.24-0.4 151.94-0.2 151.64 0 150.94 0L150.94 0 134.54 0Q131.84 0 128.54 0.15L128.54 0.15ZM154.39 0.15Q153.94 0.15 153.71-0.18 153.49-0.5 153.49-0.95L153.49-0.95Q153.54-1.7 153.79-1.85 154.04-2 154.39-2 154.74-2 154.84-2L154.84-2Q156.34-2 157.04-2.78 157.74-3.55 158.16-4.53 158.59-5.5 158.74-5.85L158.74-5.85 167.49-26.55Q167.79-27.3 167.79-27.75L167.79-27.75Q167.79-28.65 167.09-29.05 166.39-29.45 165.14-29.7L165.14-29.7Q164.29-29.85 164.09-30 163.89-30.15 163.89-30.85L163.89-30.85Q163.89-31.45 164.21-31.65 164.54-31.85 165.24-31.85L165.24-31.85Q167.74-31.85 169.21-31.48 170.69-31.1 171.79-29.98 172.89-28.85 173.84-26.55L173.84-26.55 182.24-5.85Q182.99-3.95 183.69-3 184.39-2.05 185.79-2L185.79-2 186.09-2Q186.59-2 186.79-1.83 186.99-1.65 187.04-0.95L187.04-0.95Q187.04-0.5 186.81-0.18 186.59 0.15 186.14 0.15L186.14 0.15Q182.94 0 180.64 0L180.64 0Q177.64 0 174.44 0.15L174.44 0.15Q173.99 0.15 173.76-0.18 173.54-0.5 173.54-0.95L173.54-0.95Q173.59-1.65 173.79-1.83 173.99-2 174.49-2L174.49-2Q176.19-2 176.89-2.33 177.59-2.65 177.59-3.5L177.59-3.5Q177.59-4.15 176.99-5.85L176.99-5.85 175.29-10 162.94-10Q161.69-6.9 161.51-6.4 161.34-5.9 161.34-5.85L161.34-5.85Q160.74-3.95 160.74-3.4L160.74-3.4Q160.74-2.55 161.49-2.27 162.24-2 164.34-2L164.34-2 164.64-2Q165.14-2 165.34-1.83 165.54-1.65 165.59-0.95L165.59-0.95Q165.59-0.5 165.36-0.18 165.14 0.15 164.69 0.15L164.69 0.15Q161.49 0 159.24 0L159.24 0Q157.64 0 154.39 0.15L154.39 0.15ZM169.19-25L163.89-12.15 174.39-12.15 169.34-25 169.19-25ZM211.13 1Q205.88 1 203.11-0.83 200.33-2.65 200.33-6.2L200.33-6.2Q200.33-8 201.56-9.18 202.78-10.35 204.73-10.35L204.73-10.35Q205.88-10.3 206.48-9.78 207.08-9.25 207.08-8.8L207.08-8.8Q207.08-8.75 206.58-8.45 206.08-8.15 205.68-7.55 205.28-6.95 205.28-5.9L205.28-5.9Q205.28-3.55 206.71-2.27 208.13-1 211.13-1L211.13-1Q213.18-1 214.73-1.8 216.28-2.6 217.11-3.93 217.93-5.25 217.93-6.7L217.93-6.7Q217.93-8.5 216.91-9.8 215.88-11.1 214.38-11.98 212.88-12.85 210.28-14L210.28-14Q207.28-15.35 205.43-16.45 203.58-17.55 202.28-19.38 200.98-21.2 200.98-23.9L200.98-23.9Q200.98-28.25 203.96-30.4 206.93-32.55 211.78-32.55L211.78-32.55Q215.58-32.55 218.41-30.95 221.23-29.35 221.23-26.25L221.23-26.25Q221.23-24.45 220.01-23.28 218.78-22.1 216.83-22.1L216.83-22.1Q215.68-22.15 215.08-22.68 214.48-23.2 214.48-23.65L214.48-23.65Q214.48-23.7 215.16-24 215.83-24.3 216.36-24.9 216.88-25.5 216.88-26.55L216.88-26.55Q216.88-28.4 215.46-29.45 214.03-30.5 211.83-30.5L211.83-30.5Q208.78-30.5 207.21-29.08 205.63-27.65 205.63-25.55L205.63-25.55Q205.63-23.8 206.58-22.63 207.53-21.45 209.63-20.3L209.63-20.3Q211.33-19.4 213.33-18.5L213.33-18.5Q216.53-17.05 218.41-15.85 220.28-14.65 221.56-12.7 222.83-10.75 222.83-7.85L222.83-7.85Q222.83-5.35 221.26-3.33 219.68-1.3 217.01-0.15 214.33 1 211.13 1L211.13 1ZM233.08 0.15Q232.63 0.15 232.41-0.18 232.18-0.5 232.18-0.95L232.18-0.95Q232.23-1.7 232.48-1.85 232.73-2 233.43-2L233.43-2Q234.88-2 235.58-2.53 236.28-3.05 236.46-3.83 236.63-4.6 236.68-5.85L236.68-5.85 236.68-29.7 233.23-29.7Q231.53-29.65 230.61-28.98 229.68-28.3 229.21-26.98 228.73-25.65 228.38-23.2L228.38-23.2Q228.33-22.8 227.78-22.55 227.23-22.3 226.63-22.3L226.63-22.3Q226.18-22.3 225.81-22.58 225.43-22.85 225.43-23.3L225.43-23.3 225.58-30.35Q225.58-31.55 226.93-31.55L226.93-31.55 251.38-31.55Q252.68-31.55 252.68-30.35L252.68-30.35 252.88-23.3Q252.88-22.85 252.48-22.58 252.08-22.3 251.63-22.3L251.63-22.3Q251.03-22.3 250.51-22.55 249.98-22.8 249.93-23.2L249.93-23.2Q249.53-25.7 249.08-27 248.63-28.3 247.68-28.98 246.73-29.65 245.03-29.7L245.03-29.7 241.63-29.7 241.63-5.85Q241.68-4.6 241.86-3.83 242.03-3.05 242.73-2.53 243.43-2 244.88-2L244.88-2 245.18-2Q245.63-2 245.86-1.83 246.08-1.65 246.13-0.95L246.13-0.95Q246.13-0.5 245.91-0.18 245.68 0.15 245.23 0.15L245.23 0.15Q242.03 0 239.33 0L239.33 0Q236.33 0 233.08 0.15L233.08 0.15ZM256.53 0.15Q256.13 0.15 255.9-0.18 255.68-0.5 255.68-0.95L255.68-0.95Q255.73-1.7 255.98-1.85 256.23-2 256.93-2L256.93-2Q258.38-2 259.08-2.53 259.78-3.05 259.95-3.83 260.13-4.6 260.18-5.85L260.18-5.85 260.18-25.7Q260.13-26.95 259.95-27.73 259.78-28.5 259.08-29.03 258.38-29.55 256.93-29.55L256.93-29.55 256.63-29.55Q256.13-29.55 255.93-29.73 255.73-29.9 255.68-30.6L255.68-30.6Q255.68-31.05 255.9-31.38 256.13-31.7 256.53-31.7L256.53-31.7Q259.83-31.55 262.48-31.55L262.48-31.55 278.18-31.55Q279.48-31.55 279.48-30.35L279.48-30.35 279.63-23.35Q279.63-22.9 279.18-22.63 278.73-22.35 278.28-22.35L278.28-22.35Q277.68-22.35 277.23-22.58 276.78-22.8 276.73-23.25L276.73-23.25Q276.33-25.7 275.85-26.98 275.38-28.25 274.45-28.88 273.53-29.5 271.83-29.55L271.83-29.55 265.13-29.55 265.13-16.85 274.18-16.85Q274.53-16.8 274.73-16.48 274.93-16.15 274.93-15.7L274.93-15.7Q274.93-15.3 274.73-15 274.53-14.7 274.18-14.7L274.18-14.7 265.13-14.7 265.13-5.25Q265.23-4.2 265.38-3.58 265.53-2.95 266.28-2.45 267.03-1.95 268.63-2L268.63-2 273.23-2Q274.98-2.05 275.88-2.58 276.78-3.1 277.3-4.2 277.83-5.3 278.58-7.8L278.58-7.8Q278.93-8.7 280.28-8.5L280.28-8.5Q280.78-8.4 281.15-8.1 281.53-7.8 281.48-7.35L281.48-7.35 280.48-1.05Q280.33-0.4 280.03-0.2 279.73 0 279.03 0L279.03 0 262.53 0Q259.83 0 256.53 0.15L256.53 0.15ZM286.23 0.15Q285.83 0.15 285.6-0.18 285.38-0.5 285.38-0.95L285.38-0.95Q285.43-1.7 285.68-1.85 285.93-2 286.63-2L286.63-2Q288.08-2 288.78-2.53 289.48-3.05 289.65-3.83 289.83-4.6 289.88-5.85L289.88-5.85 289.88-25.7Q289.83-26.95 289.65-27.73 289.48-28.5 288.78-29.03 288.08-29.55 286.63-29.55L286.63-29.55 286.33-29.55Q285.83-29.55 285.63-29.73 285.43-29.9 285.38-30.6L285.38-30.6Q285.38-31.05 285.6-31.38 285.83-31.7 286.23-31.7L286.23-31.7Q289.48-31.55 292.18-31.55L292.18-31.55 306.63-31.55Q307.93-31.55 307.93-30.35L307.93-30.35 308.08-23.35Q308.08-22.9 307.63-22.63 307.18-22.35 306.73-22.35L306.73-22.35Q306.13-22.35 305.65-22.58 305.18-22.8 305.13-23.25L305.13-23.25Q304.78-25.7 304.3-26.98 303.83-28.25 302.9-28.88 301.98-29.5 300.28-29.55L300.28-29.55 294.83-29.55 294.83-16.55 303.78-16.55Q304.18-16.5 304.38-16.18 304.58-15.85 304.58-15.4L304.58-15.4Q304.58-15 304.38-14.7 304.18-14.4 303.78-14.4L303.78-14.4 294.83-14.4 294.83-5.85Q294.88-4.6 295.05-3.83 295.23-3.05 295.93-2.53 296.63-2 298.08-2L298.08-2 298.38-2Q298.83-2 299.05-1.83 299.28-1.65 299.33-0.95L299.33-0.95Q299.33-0.5 299.1-0.18 298.88 0.15 298.43 0.15L298.43 0.15Q295.23 0 292.23 0L292.23 0Q289.48 0 286.23 0.15L286.23 0.15ZM307.77 0.15Q307.32 0.15 307.1-0.18 306.87-0.5 306.87-0.95L306.87-0.95Q306.92-1.7 307.17-1.85 307.42-2 307.77-2 308.12-2 308.22-2L308.22-2Q309.72-2 310.42-2.78 311.12-3.55 311.55-4.53 311.97-5.5 312.12-5.85L312.12-5.85 320.87-26.55Q321.17-27.3 321.17-27.75L321.17-27.75Q321.17-28.65 320.47-29.05 319.77-29.45 318.52-29.7L318.52-29.7Q317.67-29.85 317.47-30 317.27-30.15 317.27-30.85L317.27-30.85Q317.27-31.45 317.6-31.65 317.92-31.85 318.62-31.85L318.62-31.85Q321.12-31.85 322.6-31.48 324.07-31.1 325.17-29.98 326.27-28.85 327.22-26.55L327.22-26.55 335.62-5.85Q336.37-3.95 337.07-3 337.77-2.05 339.17-2L339.17-2 339.47-2Q339.97-2 340.17-1.83 340.37-1.65 340.42-0.95L340.42-0.95Q340.42-0.5 340.2-0.18 339.97 0.15 339.52 0.15L339.52 0.15Q336.32 0 334.02 0L334.02 0Q331.02 0 327.82 0.15L327.82 0.15Q327.37 0.15 327.15-0.18 326.92-0.5 326.92-0.95L326.92-0.95Q326.97-1.65 327.17-1.83 327.37-2 327.87-2L327.87-2Q329.57-2 330.27-2.33 330.97-2.65 330.97-3.5L330.97-3.5Q330.97-4.15 330.37-5.85L330.37-5.85 328.67-10 316.32-10Q315.07-6.9 314.9-6.4 314.72-5.9 314.72-5.85L314.72-5.85Q314.12-3.95 314.12-3.4L314.12-3.4Q314.12-2.55 314.87-2.27 315.62-2 317.72-2L317.72-2 318.02-2Q318.52-2 318.72-1.83 318.92-1.65 318.97-0.95L318.97-0.95Q318.97-0.5 318.75-0.18 318.52 0.15 318.07 0.15L318.07 0.15Q314.87 0 312.62 0L312.62 0Q311.02 0 307.77 0.15L307.77 0.15ZM322.57-25L317.27-12.15 327.77-12.15 322.72-25 322.57-25ZM341.22 0.15Q340.77 0.15 340.55-0.18 340.32-0.5 340.32-0.95L340.32-0.95Q340.37-1.7 340.62-1.85 340.87-2 341.57-2L341.57-2Q343.02-2 343.7-2.53 344.37-3.05 344.52-3.78 344.67-4.5 344.72-5.85L344.72-5.85 344.82-25.7Q344.82-27.2 344.5-27.98 344.17-28.75 343.47-29.1 342.77-29.45 341.47-29.7L341.47-29.7Q340.62-29.85 340.42-30 340.22-30.15 340.22-30.85L340.22-30.85Q340.22-31.45 340.55-31.65 340.87-31.85 341.57-31.85L341.57-31.85Q344.67-31.85 346.47-31.43 348.27-31 349.65-29.9 351.02-28.8 352.67-26.55L352.67-26.55 366.37-8.55 366.52-8.55 366.42-25.7Q366.37-27.05 366.22-27.78 366.07-28.5 365.4-29.03 364.72-29.55 363.27-29.55L363.27-29.55 362.97-29.55Q362.47-29.55 362.25-29.73 362.02-29.9 361.97-30.6L361.97-30.6Q361.97-31.05 362.22-31.38 362.47-31.7 362.87-31.7L362.87-31.7Q366.07-31.55 367.67-31.55L367.67-31.55Q368.62-31.55 371.32-31.65L371.32-31.65 372.37-31.7Q372.82-31.7 373.05-31.38 373.27-31.05 373.27-30.6L373.27-30.6Q373.22-29.85 372.97-29.7 372.72-29.55 372.02-29.55L372.02-29.55Q370.57-29.55 369.9-29.03 369.22-28.5 369.07-27.78 368.92-27.05 368.87-25.7L368.87-25.7 368.77-0.5Q368.72 0.15 367.52 0.15L367.52 0.15Q366.57 0.15 366.07-0.5L366.07-0.5 347.22-25.7 347.07-25.7 347.17-5.85Q347.22-4.5 347.37-3.78 347.52-3.05 348.2-2.53 348.87-2 350.32-2L350.32-2 350.62-2Q351.12-2 351.35-1.83 351.57-1.65 351.62-0.95L351.62-0.95Q351.62-0.5 351.4-0.18 351.17 0.15 350.72 0.15L350.72 0.15Q347.52 0 345.87 0L345.87 0Q344.87 0 342.37 0.1L342.37 0.1 341.22 0.15ZM404.02 1Q399.77 1 396.24-1.03 392.72-3.05 390.64-6.8 388.57-10.55 388.57-15.55L388.57-15.55Q388.57-20.6 390.57-24.45 392.57-28.3 396.27-30.43 399.97-32.55 404.92-32.55L404.92-32.55Q409.22-32.55 412.57-30.83 415.92-29.1 415.92-25.5L415.92-25.5Q415.97-23.25 414.57-21.68 413.17-20.1 410.82-20.1L410.82-20.1Q409.92-20.1 409.29-20.43 408.67-20.75 408.37-21.2 408.07-21.65 408.12-21.9L408.12-21.9Q408.12-22 408.82-22.45 409.52-22.9 410.07-23.7 410.62-24.5 410.62-25.65L410.62-25.65Q410.62-27.9 409.09-29.23 407.57-30.55 404.87-30.55L404.87-30.55Q401.82-30.55 399.44-28.83 397.07-27.1 395.74-23.78 394.42-20.45 394.42-15.85L394.42-15.85Q394.42-11.85 395.84-8.58 397.27-5.3 399.87-3.38 402.47-1.45 405.82-1.45L405.82-1.45Q408.52-1.45 410.44-2.58 412.37-3.7 413.92-6.2L413.92-6.2Q414.17-6.65 414.62-6.65L414.62-6.65Q415.02-6.65 415.52-6.35L415.52-6.35Q416.32-5.8 416.32-5.25L416.32-5.25Q416.32-4.95 416.12-4.75L416.12-4.75Q414.22-2.35 412.54-1.13 410.87 0.1 408.92 0.55 406.97 1 404.02 1L404.02 1ZM420.81 0.15Q420.41 0.15 420.19-0.18 419.96-0.5 419.96-0.95L419.96-0.95Q420.01-1.7 420.26-1.85 420.51-2 421.21-2L421.21-2Q422.66-2 423.36-2.53 424.06-3.05 424.24-3.83 424.41-4.6 424.46-5.85L424.46-5.85 424.46-25.7Q424.41-26.95 424.24-27.73 424.06-28.5 423.36-29.03 422.66-29.55 421.21-29.55L421.21-29.55 420.91-29.55Q420.41-29.55 420.21-29.73 420.01-29.9 419.96-30.6L419.96-30.6Q419.96-31.05 420.19-31.38 420.41-31.7 420.81-31.7L420.81-31.7Q424.11-31.55 426.76-31.55L426.76-31.55 442.46-31.55Q443.76-31.55 443.76-30.35L443.76-30.35 443.91-23.35Q443.91-22.9 443.46-22.63 443.01-22.35 442.56-22.35L442.56-22.35Q441.96-22.35 441.51-22.58 441.06-22.8 441.01-23.25L441.01-23.25Q440.61-25.7 440.14-26.98 439.66-28.25 438.74-28.88 437.81-29.5 436.11-29.55L436.11-29.55 429.41-29.55 429.41-16.85 438.46-16.85Q438.81-16.8 439.01-16.48 439.21-16.15 439.21-15.7L439.21-15.7Q439.21-15.3 439.01-15 438.81-14.7 438.46-14.7L438.46-14.7 429.41-14.7 429.41-5.25Q429.51-4.2 429.66-3.58 429.81-2.95 430.56-2.45 431.31-1.95 432.91-2L432.91-2 437.51-2Q439.26-2.05 440.16-2.58 441.06-3.1 441.59-4.2 442.11-5.3 442.86-7.8L442.86-7.8Q443.21-8.7 444.56-8.5L444.56-8.5Q445.06-8.4 445.44-8.1 445.81-7.8 445.76-7.35L445.76-7.35 444.76-1.05Q444.61-0.4 444.31-0.2 444.01 0 443.31 0L443.31 0 426.81 0Q424.11 0 420.81 0.15L420.81 0.15ZM450.51 0.15Q450.11 0.15 449.89-0.18 449.66-0.5 449.66-0.95L449.66-0.95Q449.71-1.7 449.96-1.85 450.21-2 450.91-2L450.91-2Q452.36-2 453.06-2.53 453.76-3.05 453.94-3.83 454.11-4.6 454.16-5.85L454.16-5.85 454.16-25.7Q454.11-26.95 453.94-27.73 453.76-28.5 453.06-29.03 452.36-29.55 450.91-29.55L450.91-29.55 450.61-29.55Q450.11-29.55 449.91-29.73 449.71-29.9 449.66-30.6L449.66-30.6Q449.66-31.05 449.89-31.38 450.11-31.7 450.51-31.7L450.51-31.7Q453.81-31.55 456.46-31.55L456.46-31.55Q459.46-31.55 462.71-31.7L462.71-31.7Q463.16-31.7 463.39-31.38 463.61-31.05 463.61-30.6L463.61-30.6Q463.56-29.85 463.29-29.7 463.01-29.55 462.36-29.55L462.36-29.55Q460.91-29.55 460.21-29.03 459.51-28.5 459.34-27.73 459.16-26.95 459.11-25.7L459.11-25.7 459.11-5.1Q459.21-4.05 459.36-3.48 459.51-2.9 460.26-2.43 461.01-1.95 462.61-2L462.61-2 467.11-2Q468.86-2.05 469.76-2.58 470.66-3.1 471.19-4.2 471.71-5.3 472.46-7.8L472.46-7.8Q472.81-8.7 474.16-8.5L474.16-8.5Q474.61-8.4 475.01-8.1 475.41-7.8 475.36-7.35L475.36-7.35 474.36-1.05Q474.21-0.4 473.91-0.2 473.61 0 472.91 0L472.91 0 456.51 0Q453.81 0 450.51 0.15L450.51 0.15ZM508.61 0.25Q507.86 0.25 507.56-0.25L507.56-0.25 496.31-25.7 496.16-25.7 496.26-5.85Q496.31-4.5 496.46-3.78 496.61-3.05 497.28-2.53 497.96-2 499.41-2L499.41-2 499.71-2Q500.21-2 500.43-1.83 500.66-1.65 500.71-0.95L500.71-0.95Q500.71-0.5 500.48-0.18 500.26 0.15 499.81 0.15L499.81 0.15 498.56 0.1Q496.26 0 495.26 0L495.26 0Q493.56 0 490.31 0.15L490.31 0.15Q489.86 0.15 489.63-0.18 489.41-0.5 489.41-0.95L489.41-0.95Q489.46-1.7 489.71-1.85 489.96-2 490.66-2L490.66-2Q492.11-2 492.78-2.53 493.46-3.05 493.61-3.78 493.76-4.5 493.81-5.85L493.81-5.85 493.91-25.7Q493.91-27.25 493.56-28.03 493.21-28.8 492.53-29.13 491.86-29.45 490.56-29.7L490.56-29.7Q490.36-29.75 489.96-29.83 489.56-29.9 489.43-30.13 489.31-30.35 489.31-30.85L489.31-30.85Q489.31-31.45 489.63-31.65 489.96-31.85 490.66-31.85L490.66-31.85Q493.61-31.85 495.51-31.48 497.41-31.1 498.83-29.95 500.26-28.8 501.21-26.55L501.21-26.55 509.81-7.25 509.96-7.25 519.81-31.55 522.66-31.55Q525.41-31.55 528.61-31.7L528.61-31.7Q529.06-31.7 529.28-31.38 529.5-31.05 529.5-30.6L529.5-30.6Q529.46-29.85 529.18-29.7 528.91-29.55 528.25-29.55L528.25-29.55Q526.81-29.55 526.11-29.03 525.41-28.5 525.23-27.73 525.06-26.95 525-25.7L525-25.7 525-5.85Q525.06-4.6 525.23-3.83 525.41-3.05 526.11-2.53 526.81-2 528.25-2L528.25-2 528.56-2Q529-2 529.23-1.83 529.46-1.65 529.5-0.95L529.5-0.95Q529.5-0.5 529.28-0.18 529.06 0.15 528.61 0.15L528.61 0.15Q525.41 0 522.61 0L522.61 0Q519.71 0 516.46 0.15L516.46 0.15Q516 0.15 515.78-0.18 515.56-0.5 515.56-0.95L515.56-0.95Q515.61-1.7 515.86-1.85 516.11-2 516.81-2L516.81-2Q518.25-2 518.96-2.53 519.66-3.05 519.83-3.83 520-4.6 520.06-5.85L520.06-5.85 520.06-25.7 519.91-25.7 509.61-0.25Q509.41 0.25 508.61 0.25L508.61 0.25ZM531.95 0.15Q531.5 0.15 531.28-0.18 531.05-0.5 531.05-0.95L531.05-0.95Q531.1-1.7 531.35-1.85 531.6-2 531.95-2 532.3-2 532.4-2L532.4-2Q533.9-2 534.6-2.78 535.3-3.55 535.73-4.53 536.15-5.5 536.3-5.85L536.3-5.85 545.05-26.55Q545.35-27.3 545.35-27.75L545.35-27.75Q545.35-28.65 544.65-29.05 543.95-29.45 542.7-29.7L542.7-29.7Q541.85-29.85 541.65-30 541.45-30.15 541.45-30.85L541.45-30.85Q541.45-31.45 541.78-31.65 542.1-31.85 542.8-31.85L542.8-31.85Q545.3-31.85 546.78-31.48 548.25-31.1 549.35-29.98 550.45-28.85 551.4-26.55L551.4-26.55 559.8-5.85Q560.55-3.95 561.25-3 561.95-2.05 563.35-2L563.35-2 563.65-2Q564.15-2 564.35-1.83 564.55-1.65 564.6-0.95L564.6-0.95Q564.6-0.5 564.38-0.18 564.15 0.15 563.7 0.15L563.7 0.15Q560.5 0 558.2 0L558.2 0Q555.2 0 552 0.15L552 0.15Q551.55 0.15 551.33-0.18 551.1-0.5 551.1-0.95L551.1-0.95Q551.15-1.65 551.35-1.83 551.55-2 552.05-2L552.05-2Q553.75-2 554.45-2.33 555.15-2.65 555.15-3.5L555.15-3.5Q555.15-4.15 554.55-5.85L554.55-5.85 552.85-10 540.5-10Q539.25-6.9 539.08-6.4 538.9-5.9 538.9-5.85L538.9-5.85Q538.3-3.95 538.3-3.4L538.3-3.4Q538.3-2.55 539.05-2.27 539.8-2 541.9-2L541.9-2 542.2-2Q542.7-2 542.9-1.83 543.1-1.65 543.15-0.95L543.15-0.95Q543.15-0.5 542.93-0.18 542.7 0.15 542.25 0.15L542.25 0.15Q539.05 0 536.8 0L536.8 0Q535.2 0 531.95 0.15L531.95 0.15ZM546.75-25L541.45-12.15 551.95-12.15 546.9-25 546.75-25ZM565.35 0.15Q564.9 0.15 564.67-0.18 564.45-0.5 564.45-0.95L564.45-0.95Q564.5-1.7 564.75-1.85 565-2 565.7-2L565.7-2Q567.15-2 567.85-2.53 568.55-3.05 568.72-3.83 568.9-4.6 568.95-5.85L568.95-5.85 568.95-25.65Q568.9-26.95 568.72-27.7 568.55-28.45 567.85-29 567.15-29.55 565.7-29.55L565.7-29.55 565.4-29.55Q564.9-29.55 564.7-29.73 564.5-29.9 564.45-30.6L564.45-30.6Q564.45-31.05 564.67-31.38 564.9-31.7 565.35-31.7L565.35-31.7Q568.6-31.55 571.3-31.55L571.3-31.55 579.9-31.55Q583.75-31.5 586.32-30.33 588.9-29.15 590.1-27.33 591.3-25.5 591.3-23.4L591.3-23.4Q591.3-20.65 589.13-18.35 586.95-16.05 583.2-15.05L583.2-15.05 584.05-13.7Q586.15-10.3 587.85-7.88 589.55-5.45 591.55-3.35L591.55-3.35Q592.95-2.2 594.55-2L594.55-2Q594.65-2 595-1.98 595.35-1.95 595.57-1.7 595.8-1.45 595.8-0.95L595.8-0.95Q595.8-0.5 595.57-0.18 595.35 0.15 594.9 0.15L594.9 0.15 593.6 0.1Q591.4 0 590.4 0L590.4 0Q588.4-0.4 586.97-1.43 585.55-2.45 584.15-4.35L584.15-4.35Q582.7-6.25 580.1-10.55L580.1-10.55 579.2-12Q578.45-13.15 577.75-13.58 577.05-14 575.35-14L575.35-14 573.9-14 573.9-5.85Q573.95-4.6 574.13-3.83 574.3-3.05 575-2.53 575.7-2 577.15-2L577.15-2 577.45-2Q577.9-2 578.13-1.83 578.35-1.65 578.4-0.95L578.4-0.95Q578.4-0.5 578.17-0.18 577.95 0.15 577.5 0.15L577.5 0.15Q574.3 0 571.25 0L571.25 0Q568.6 0 565.35 0.15L565.35 0.15ZM573.9-15.95L578.3-15.95Q585.75-15.95 585.75-22.95L585.75-22.95Q585.75-25.8 583.8-27.75 581.85-29.7 577.4-29.7L577.4-29.7Q575.95-29.7 575.2-29.35 574.45-29 574.17-28.15 573.9-27.3 573.9-25.55L573.9-25.55 573.9-15.95ZM598.85 0.15Q598.45 0.15 598.22-0.18 598-0.5 598-0.95L598-0.95Q598.05-1.7 598.3-1.85 598.55-2 599.25-2L599.25-2Q600.7-2 601.4-2.53 602.1-3.05 602.27-3.83 602.45-4.6 602.5-5.85L602.5-5.85 602.5-25.7Q602.45-26.95 602.27-27.73 602.1-28.5 601.4-29.03 600.7-29.55 599.25-29.55L599.25-29.55 598.95-29.55Q598.45-29.55 598.25-29.73 598.05-29.9 598-30.6L598-30.6Q598-31.05 598.22-31.38 598.45-31.7 598.85-31.7L598.85-31.7Q602.15-31.55 604.8-31.55L604.8-31.55 620.5-31.55Q621.8-31.55 621.8-30.35L621.8-30.35 621.95-23.35Q621.95-22.9 621.5-22.63 621.05-22.35 620.6-22.35L620.6-22.35Q620-22.35 619.55-22.58 619.1-22.8 619.05-23.25L619.05-23.25Q618.65-25.7 618.17-26.98 617.7-28.25 616.77-28.88 615.85-29.5 614.15-29.55L614.15-29.55 607.45-29.55 607.45-16.85 616.5-16.85Q616.85-16.8 617.05-16.48 617.25-16.15 617.25-15.7L617.25-15.7Q617.25-15.3 617.05-15 616.85-14.7 616.5-14.7L616.5-14.7 607.45-14.7 607.45-5.25Q607.55-4.2 607.7-3.58 607.85-2.95 608.6-2.45 609.35-1.95 610.95-2L610.95-2 615.55-2Q617.3-2.05 618.2-2.58 619.1-3.1 619.62-4.2 620.15-5.3 620.9-7.8L620.9-7.8Q621.25-8.7 622.6-8.5L622.6-8.5Q623.1-8.4 623.47-8.1 623.85-7.8 623.8-7.35L623.8-7.35 622.8-1.05Q622.65-0.4 622.35-0.2 622.05 0 621.35 0L621.35 0 604.85 0Q602.15 0 598.85 0.15L598.85 0.15Z" opacity="1" transform="matrix(1,0,0,1,0,0)" fill="#000000" class="undefined-text-0" data-fill-palette-color="primary" id="text-0"></path></svg></g></svg></g><g transform="matrix(1,0,0,1,0,27.81718430433982)"><svg viewBox="0 0 188.7107095220515 13.196965720614546" height="13.196965720614546" width="188.7107095220515"><g transform="matrix(1,0,0,1,0,0)"><svg width="188.7107095220515" viewBox="2.1500000953674316 -32.54999923706055 479.7099914550781 33.54999923706055" height="13.196965720614546" data-palette-color="#ffffff"><path d="M3 0.15Q2.6 0.15 2.38-0.18 2.15-0.5 2.15-0.95L2.15-0.95Q2.2-1.7 2.45-1.85 2.7-2 3.4-2L3.4-2Q4.85-2 5.55-2.53 6.25-3.05 6.43-3.83 6.6-4.6 6.65-5.85L6.65-5.85 6.65-25.7Q6.6-26.95 6.43-27.73 6.25-28.5 5.55-29.03 4.85-29.55 3.4-29.55L3.4-29.55 3.1-29.55Q2.6-29.55 2.4-29.73 2.2-29.9 2.15-30.6L2.15-30.6Q2.15-31.05 2.38-31.38 2.6-31.7 3-31.7L3-31.7Q6.25-31.55 8.95-31.55L8.95-31.55 23.4-31.55Q24.7-31.55 24.7-30.35L24.7-30.35 24.85-23.35Q24.85-22.9 24.4-22.63 23.95-22.35 23.5-22.35L23.5-22.35Q22.9-22.35 22.43-22.58 21.95-22.8 21.9-23.25L21.9-23.25Q21.55-25.7 21.08-26.98 20.6-28.25 19.68-28.88 18.75-29.5 17.05-29.55L17.05-29.55 11.6-29.55 11.6-16.55 20.55-16.55Q20.95-16.5 21.15-16.18 21.35-15.85 21.35-15.4L21.35-15.4Q21.35-15 21.15-14.7 20.95-14.4 20.55-14.4L20.55-14.4 11.6-14.4 11.6-5.85Q11.65-4.6 11.83-3.83 12-3.05 12.7-2.53 13.4-2 14.85-2L14.85-2 15.15-2Q15.6-2 15.83-1.83 16.05-1.65 16.1-0.95L16.1-0.95Q16.1-0.5 15.88-0.18 15.65 0.15 15.2 0.15L15.2 0.15Q12 0 9 0L9 0Q6.25 0 3 0.15L3 0.15ZM24.55 0.15Q24.1 0.15 23.87-0.18 23.65-0.5 23.65-0.95L23.65-0.95Q23.7-1.7 23.95-1.85 24.2-2 24.55-2 24.9-2 25-2L25-2Q26.5-2 27.2-2.78 27.9-3.55 28.32-4.53 28.75-5.5 28.9-5.85L28.9-5.85 37.65-26.55Q37.95-27.3 37.95-27.75L37.95-27.75Q37.95-28.65 37.25-29.05 36.55-29.45 35.3-29.7L35.3-29.7Q34.45-29.85 34.25-30 34.05-30.15 34.05-30.85L34.05-30.85Q34.05-31.45 34.37-31.65 34.7-31.85 35.4-31.85L35.4-31.85Q37.9-31.85 39.37-31.48 40.85-31.1 41.95-29.98 43.05-28.85 44-26.55L44-26.55 52.4-5.85Q53.15-3.95 53.85-3 54.55-2.05 55.95-2L55.95-2 56.25-2Q56.75-2 56.95-1.83 57.15-1.65 57.2-0.95L57.2-0.95Q57.2-0.5 56.97-0.18 56.75 0.15 56.3 0.15L56.3 0.15Q53.1 0 50.8 0L50.8 0Q47.8 0 44.6 0.15L44.6 0.15Q44.15 0.15 43.92-0.18 43.7-0.5 43.7-0.95L43.7-0.95Q43.75-1.65 43.95-1.83 44.15-2 44.65-2L44.65-2Q46.35-2 47.05-2.33 47.75-2.65 47.75-3.5L47.75-3.5Q47.75-4.15 47.15-5.85L47.15-5.85 45.45-10 33.1-10Q31.85-6.9 31.67-6.4 31.5-5.9 31.5-5.85L31.5-5.85Q30.9-3.95 30.9-3.4L30.9-3.4Q30.9-2.55 31.65-2.27 32.4-2 34.5-2L34.5-2 34.8-2Q35.3-2 35.5-1.83 35.7-1.65 35.75-0.95L35.75-0.95Q35.75-0.5 35.52-0.18 35.3 0.15 34.85 0.15L34.85 0.15Q31.65 0 29.4 0L29.4 0Q27.8 0 24.55 0.15L24.55 0.15ZM39.35-25L34.05-12.15 44.55-12.15 39.5-25 39.35-25ZM73.89 1Q69.64 1 66.12-1.03 62.59-3.05 60.52-6.8 58.45-10.55 58.45-15.55L58.45-15.55Q58.45-20.6 60.45-24.45 62.45-28.3 66.14-30.43 69.84-32.55 74.8-32.55L74.8-32.55Q79.09-32.55 82.44-30.83 85.8-29.1 85.8-25.5L85.8-25.5Q85.84-23.25 84.44-21.68 83.05-20.1 80.69-20.1L80.69-20.1Q79.8-20.1 79.17-20.43 78.55-20.75 78.25-21.2 77.94-21.65 78-21.9L78-21.9Q78-22 78.69-22.45 79.39-22.9 79.94-23.7 80.5-24.5 80.5-25.65L80.5-25.65Q80.5-27.9 78.97-29.23 77.44-30.55 74.75-30.55L74.75-30.55Q71.69-30.55 69.32-28.83 66.94-27.1 65.62-23.78 64.3-20.45 64.3-15.85L64.3-15.85Q64.3-11.85 65.72-8.58 67.14-5.3 69.75-3.38 72.34-1.45 75.69-1.45L75.69-1.45Q78.39-1.45 80.32-2.58 82.25-3.7 83.8-6.2L83.8-6.2Q84.05-6.65 84.5-6.65L84.5-6.65Q84.89-6.65 85.39-6.35L85.39-6.35Q86.19-5.8 86.19-5.25L86.19-5.25Q86.19-4.95 86-4.75L86-4.75Q84.09-2.35 82.42-1.13 80.75 0.1 78.8 0.55 76.84 1 73.89 1L73.89 1ZM96.89 0.15Q96.44 0.15 96.22-0.18 95.99-0.5 95.99-0.95L95.99-0.95Q96.04-1.7 96.29-1.85 96.54-2 97.24-2L97.24-2Q98.69-2 99.39-2.53 100.09-3.05 100.27-3.83 100.44-4.6 100.49-5.85L100.49-5.85 100.49-29.7 97.04-29.7Q95.34-29.65 94.42-28.98 93.49-28.3 93.02-26.98 92.54-25.65 92.19-23.2L92.19-23.2Q92.14-22.8 91.59-22.55 91.04-22.3 90.44-22.3L90.44-22.3Q89.99-22.3 89.62-22.58 89.24-22.85 89.24-23.3L89.24-23.3 89.39-30.35Q89.39-31.55 90.74-31.55L90.74-31.55 115.19-31.55Q116.49-31.55 116.49-30.35L116.49-30.35 116.69-23.3Q116.69-22.85 116.29-22.58 115.89-22.3 115.44-22.3L115.44-22.3Q114.84-22.3 114.32-22.55 113.79-22.8 113.74-23.2L113.74-23.2Q113.34-25.7 112.89-27 112.44-28.3 111.49-28.98 110.54-29.65 108.84-29.7L108.84-29.7 105.44-29.7 105.44-5.85Q105.49-4.6 105.67-3.83 105.84-3.05 106.54-2.53 107.24-2 108.69-2L108.69-2 108.99-2Q109.44-2 109.67-1.83 109.89-1.65 109.94-0.95L109.94-0.95Q109.94-0.5 109.72-0.18 109.49 0.15 109.04 0.15L109.04 0.15Q105.84 0 103.14 0L103.14 0Q100.14 0 96.89 0.15L96.89 0.15ZM136.24 1Q131.49 1 127.86-1.28 124.24-3.55 122.27-7.3 120.29-11.05 120.29-15.35L120.29-15.35Q120.29-20.6 122.66-24.5 125.04-28.4 128.74-30.48 132.44-32.55 136.24-32.55L136.24-32.55Q141.04-32.55 144.72-30.28 148.39-28 150.37-24.28 152.34-20.55 152.34-16.25L152.34-16.25Q152.34-11 149.94-7.08 147.54-3.15 143.79-1.07 140.04 1 136.24 1L136.24 1ZM136.19-1.2Q139.59-1.2 141.87-3.23 144.14-5.25 145.26-8.68 146.39-12.1 146.39-16.25L146.39-16.25Q146.39-20.1 145.24-23.33 144.09-26.55 141.79-28.48 139.49-30.4 136.19-30.4L136.19-30.4Q131.19-30.4 128.66-26.18 126.14-21.95 126.14-15.5L126.14-15.5Q126.14-11.6 127.27-8.35 128.39-5.1 130.64-3.15 132.89-1.2 136.19-1.2L136.19-1.2ZM157.14 0.15Q156.69 0.15 156.46-0.18 156.24-0.5 156.24-0.95L156.24-0.95Q156.29-1.7 156.54-1.85 156.79-2 157.49-2L157.49-2Q158.94-2 159.64-2.53 160.34-3.05 160.51-3.83 160.69-4.6 160.74-5.85L160.74-5.85 160.74-25.65Q160.69-26.95 160.51-27.7 160.34-28.45 159.64-29 158.94-29.55 157.49-29.55L157.49-29.55 157.19-29.55Q156.69-29.55 156.49-29.73 156.29-29.9 156.24-30.6L156.24-30.6Q156.24-31.05 156.46-31.38 156.69-31.7 157.14-31.7L157.14-31.7Q160.39-31.55 163.09-31.55L163.09-31.55 171.69-31.55Q175.54-31.5 178.11-30.33 180.69-29.15 181.89-27.33 183.09-25.5 183.09-23.4L183.09-23.4Q183.09-20.65 180.91-18.35 178.74-16.05 174.99-15.05L174.99-15.05 175.84-13.7Q177.94-10.3 179.64-7.88 181.34-5.45 183.34-3.35L183.34-3.35Q184.74-2.2 186.34-2L186.34-2Q186.44-2 186.79-1.98 187.14-1.95 187.36-1.7 187.59-1.45 187.59-0.95L187.59-0.95Q187.59-0.5 187.36-0.18 187.14 0.15 186.69 0.15L186.69 0.15 185.39 0.1Q183.19 0 182.19 0L182.19 0Q180.19-0.4 178.76-1.43 177.34-2.45 175.94-4.35L175.94-4.35Q174.49-6.25 171.89-10.55L171.89-10.55 170.99-12Q170.24-13.15 169.54-13.58 168.84-14 167.14-14L167.14-14 165.69-14 165.69-5.85Q165.74-4.6 165.91-3.83 166.09-3.05 166.79-2.53 167.49-2 168.94-2L168.94-2 169.24-2Q169.69-2 169.91-1.83 170.14-1.65 170.19-0.95L170.19-0.95Q170.19-0.5 169.96-0.18 169.74 0.15 169.29 0.15L169.29 0.15Q166.09 0 163.04 0L163.04 0Q160.39 0 157.14 0.15L157.14 0.15ZM165.69-15.95L170.09-15.95Q177.54-15.95 177.54-22.95L177.54-22.95Q177.54-25.8 175.59-27.75 173.64-29.7 169.19-29.7L169.19-29.7Q167.74-29.7 166.99-29.35 166.24-29 165.96-28.15 165.69-27.3 165.69-25.55L165.69-25.55 165.69-15.95ZM195.59 0.15Q195.14 0.15 194.91-0.18 194.69-0.5 194.69-0.95L194.69-0.95Q194.74-1.7 195.01-1.85 195.28-2 195.94-2L195.94-2Q197.39-2 198.09-2.53 198.78-3.05 198.96-3.83 199.14-4.6 199.19-5.85L199.19-5.85 199.19-12.1Q199.19-12.9 196.71-17.93 194.24-22.95 192.69-25.75L192.69-25.75Q191.69-27.55 190.49-28.43 189.28-29.3 187.53-29.65L187.53-29.65Q187.34-29.7 186.94-29.78 186.53-29.85 186.41-30.08 186.28-30.3 186.28-30.8L186.28-30.8Q186.28-31.4 186.61-31.6 186.94-31.8 187.64-31.8L187.64-31.8Q191.64-31.8 193.89-30.73 196.14-29.65 197.89-26.6L197.89-26.6Q198.74-24.95 200.24-21.85L200.24-21.85Q202.44-17.45 203.14-16.15L203.14-16.15 203.28-16.15 208.84-27.1Q209.29-28.1 209.29-28.55L209.29-28.55Q209.29-29.15 208.66-29.35 208.04-29.55 206.64-29.55L206.64-29.55 206.34-29.55Q205.84-29.55 205.64-29.73 205.44-29.9 205.39-30.6L205.39-30.6Q205.39-31.05 205.61-31.38 205.84-31.7 206.24-31.7L206.24-31.7Q209.49-31.55 211.69-31.55L211.69-31.55Q213.54-31.55 216.74-31.7L216.74-31.7Q217.19-31.7 217.41-31.38 217.64-31.05 217.64-30.6L217.64-30.6Q217.59-29.9 217.39-29.73 217.19-29.55 216.69-29.55L216.69-29.55Q214.64-29.55 213.39-28.78 212.14-28 211.14-26.15L211.14-26.15 205.49-15.5Q205.34-15.2 204.89-14.28 204.44-13.35 204.28-12.58 204.14-11.8 204.14-10.7L204.14-10.7 204.14-5.85Q204.19-4.6 204.36-3.83 204.53-3.05 205.24-2.53 205.94-2 207.39-2L207.39-2 207.69-2Q208.19-2 208.39-1.83 208.59-1.65 208.64-0.95L208.64-0.95Q208.64-0.5 208.41-0.18 208.19 0.15 207.79 0.15L207.79 0.15Q204.59 0 201.78 0L201.78 0Q198.84 0 195.59 0.15L195.59 0.15ZM246.58 1Q241.83 1 238.21-1.28 234.58-3.55 232.61-7.3 230.63-11.05 230.63-15.35L230.63-15.35Q230.63-20.6 233.01-24.5 235.38-28.4 239.08-30.48 242.78-32.55 246.58-32.55L246.58-32.55Q251.38-32.55 255.06-30.28 258.73-28 260.71-24.28 262.68-20.55 262.68-16.25L262.68-16.25Q262.68-11 260.28-7.08 257.88-3.15 254.13-1.07 250.38 1 246.58 1L246.58 1ZM246.53-1.2Q249.93-1.2 252.21-3.23 254.48-5.25 255.61-8.68 256.73-12.1 256.73-16.25L256.73-16.25Q256.73-20.1 255.58-23.33 254.43-26.55 252.13-28.48 249.83-30.4 246.53-30.4L246.53-30.4Q241.53-30.4 239.01-26.18 236.48-21.95 236.48-15.5L236.48-15.5Q236.48-11.6 237.61-8.35 238.73-5.1 240.98-3.15 243.23-1.2 246.53-1.2L246.53-1.2ZM267.43 0.15Q267.03 0.15 266.8-0.18 266.58-0.5 266.58-0.95L266.58-0.95Q266.63-1.7 266.88-1.85 267.13-2 267.83-2L267.83-2Q269.28-2 269.98-2.53 270.68-3.05 270.85-3.83 271.03-4.6 271.08-5.85L271.08-5.85 271.08-25.7Q271.03-26.95 270.85-27.73 270.68-28.5 269.98-29.03 269.28-29.55 267.83-29.55L267.83-29.55 267.53-29.55Q267.03-29.55 266.83-29.73 266.63-29.9 266.58-30.6L266.58-30.6Q266.58-31.05 266.8-31.38 267.03-31.7 267.43-31.7L267.43-31.7Q270.68-31.55 273.38-31.55L273.38-31.55 287.83-31.55Q289.13-31.55 289.13-30.35L289.13-30.35 289.28-23.35Q289.28-22.9 288.83-22.63 288.38-22.35 287.93-22.35L287.93-22.35Q287.33-22.35 286.85-22.58 286.38-22.8 286.33-23.25L286.33-23.25Q285.98-25.7 285.5-26.98 285.03-28.25 284.1-28.88 283.18-29.5 281.48-29.55L281.48-29.55 276.03-29.55 276.03-16.55 284.98-16.55Q285.38-16.5 285.58-16.18 285.78-15.85 285.78-15.4L285.78-15.4Q285.78-15 285.58-14.7 285.38-14.4 284.98-14.4L284.98-14.4 276.03-14.4 276.03-5.85Q276.08-4.6 276.25-3.83 276.43-3.05 277.13-2.53 277.83-2 279.28-2L279.28-2 279.58-2Q280.03-2 280.25-1.83 280.48-1.65 280.53-0.95L280.53-0.95Q280.53-0.5 280.3-0.18 280.08 0.15 279.63 0.15L279.63 0.15Q276.43 0 273.43 0L273.43 0Q270.68 0 267.43 0.15L267.43 0.15ZM304.82 0.15Q304.42 0.15 304.2-0.18 303.97-0.5 303.97-0.95L303.97-0.95Q304.02-1.7 304.27-1.85 304.52-2 305.22-2L305.22-2Q306.67-2 307.37-2.53 308.07-3.05 308.25-3.83 308.42-4.6 308.47-5.85L308.47-5.85 308.47-25.7Q308.42-26.95 308.25-27.73 308.07-28.5 307.37-29.03 306.67-29.55 305.22-29.55L305.22-29.55 304.92-29.55Q304.42-29.55 304.22-29.73 304.02-29.9 303.97-30.6L303.97-30.6Q303.97-31.05 304.2-31.38 304.42-31.7 304.82-31.7L304.82-31.7Q308.12-31.55 310.77-31.55L310.77-31.55Q313.77-31.55 317.02-31.7L317.02-31.7Q317.47-31.7 317.7-31.38 317.92-31.05 317.92-30.6L317.92-30.6Q317.87-29.85 317.6-29.7 317.32-29.55 316.67-29.55L316.67-29.55Q315.22-29.55 314.52-29.03 313.82-28.5 313.65-27.73 313.47-26.95 313.42-25.7L313.42-25.7 313.42-5.1Q313.52-4.05 313.67-3.48 313.82-2.9 314.57-2.43 315.32-1.95 316.92-2L316.92-2 321.42-2Q323.17-2.05 324.07-2.58 324.97-3.1 325.5-4.2 326.02-5.3 326.77-7.8L326.77-7.8Q327.12-8.7 328.47-8.5L328.47-8.5Q328.92-8.4 329.32-8.1 329.72-7.8 329.67-7.35L329.67-7.35 328.67-1.05Q328.52-0.4 328.22-0.2 327.92 0 327.22 0L327.22 0 310.82 0Q308.12 0 304.82 0.15L304.82 0.15ZM348.67 1Q343.92 1 340.3-1.28 336.67-3.55 334.69-7.3 332.72-11.05 332.72-15.35L332.72-15.35Q332.72-20.6 335.1-24.5 337.47-28.4 341.17-30.48 344.87-32.55 348.67-32.55L348.67-32.55Q353.47-32.55 357.14-30.28 360.82-28 362.8-24.28 364.77-20.55 364.77-16.25L364.77-16.25Q364.77-11 362.37-7.08 359.97-3.15 356.22-1.07 352.47 1 348.67 1L348.67 1ZM348.62-1.2Q352.02-1.2 354.3-3.23 356.57-5.25 357.69-8.68 358.82-12.1 358.82-16.25L358.82-16.25Q358.82-20.1 357.67-23.33 356.52-26.55 354.22-28.48 351.92-30.4 348.62-30.4L348.62-30.4Q343.62-30.4 341.1-26.18 338.57-21.95 338.57-15.5L338.57-15.5Q338.57-11.6 339.69-8.35 340.82-5.1 343.07-3.15 345.32-1.2 348.62-1.2L348.62-1.2ZM380.37 1Q375.12 1 372.34-0.83 369.57-2.65 369.57-6.2L369.57-6.2Q369.57-8 370.79-9.18 372.02-10.35 373.97-10.35L373.97-10.35Q375.12-10.3 375.72-9.78 376.32-9.25 376.32-8.8L376.32-8.8Q376.32-8.75 375.82-8.45 375.32-8.15 374.92-7.55 374.52-6.95 374.52-5.9L374.52-5.9Q374.52-3.55 375.94-2.27 377.37-1 380.37-1L380.37-1Q382.42-1 383.97-1.8 385.52-2.6 386.34-3.93 387.17-5.25 387.17-6.7L387.17-6.7Q387.17-8.5 386.14-9.8 385.12-11.1 383.62-11.98 382.12-12.85 379.52-14L379.52-14Q376.52-15.35 374.67-16.45 372.82-17.55 371.52-19.38 370.22-21.2 370.22-23.9L370.22-23.9Q370.22-28.25 373.19-30.4 376.17-32.55 381.02-32.55L381.02-32.55Q384.82-32.55 387.64-30.95 390.47-29.35 390.47-26.25L390.47-26.25Q390.47-24.45 389.24-23.28 388.02-22.1 386.07-22.1L386.07-22.1Q384.92-22.15 384.32-22.68 383.72-23.2 383.72-23.65L383.72-23.65Q383.72-23.7 384.39-24 385.07-24.3 385.59-24.9 386.12-25.5 386.12-26.55L386.12-26.55Q386.12-28.4 384.69-29.45 383.27-30.5 381.07-30.5L381.07-30.5Q378.02-30.5 376.44-29.08 374.87-27.65 374.87-25.55L374.87-25.55Q374.87-23.8 375.82-22.63 376.77-21.45 378.87-20.3L378.87-20.3Q380.57-19.4 382.57-18.5L382.57-18.5Q385.77-17.05 387.64-15.85 389.52-14.65 390.79-12.7 392.07-10.75 392.07-7.85L392.07-7.85Q392.07-5.35 390.49-3.33 388.92-1.3 386.24-0.15 383.57 1 380.37 1L380.37 1ZM396.67 0.15Q396.27 0.15 396.04-0.18 395.81-0.5 395.81-0.95L395.81-0.95Q395.87-1.7 396.12-1.85 396.37-2 397.06-2L397.06-2Q398.52-2 399.22-2.53 399.92-3.05 400.09-3.83 400.27-4.6 400.31-5.85L400.31-5.85 400.31-25.7Q400.27-26.95 400.09-27.73 399.92-28.5 399.22-29.03 398.52-29.55 397.06-29.55L397.06-29.55 396.77-29.55Q396.27-29.55 396.06-29.73 395.87-29.9 395.81-30.6L395.81-30.6Q395.81-31.05 396.04-31.38 396.27-31.7 396.67-31.7L396.67-31.7Q399.97-31.55 402.62-31.55L402.62-31.55 418.31-31.55Q419.62-31.55 419.62-30.35L419.62-30.35 419.77-23.35Q419.77-22.9 419.31-22.63 418.87-22.35 418.42-22.35L418.42-22.35Q417.81-22.35 417.37-22.58 416.92-22.8 416.87-23.25L416.87-23.25Q416.47-25.7 415.99-26.98 415.52-28.25 414.59-28.88 413.67-29.5 411.97-29.55L411.97-29.55 405.27-29.55 405.27-16.85 414.31-16.85Q414.67-16.8 414.87-16.48 415.06-16.15 415.06-15.7L415.06-15.7Q415.06-15.3 414.87-15 414.67-14.7 414.31-14.7L414.31-14.7 405.27-14.7 405.27-5.25Q405.37-4.2 405.52-3.58 405.67-2.95 406.42-2.45 407.17-1.95 408.77-2L408.77-2 413.37-2Q415.12-2.05 416.02-2.58 416.92-3.1 417.44-4.2 417.97-5.3 418.72-7.8L418.72-7.8Q419.06-8.7 420.42-8.5L420.42-8.5Q420.92-8.4 421.29-8.1 421.67-7.8 421.62-7.35L421.62-7.35 420.62-1.05Q420.47-0.4 420.17-0.2 419.87 0 419.17 0L419.17 0 402.67 0Q399.97 0 396.67 0.15L396.67 0.15ZM426.41 0.15Q425.96 0.15 425.74-0.18 425.51-0.5 425.51-0.95L425.51-0.95Q425.56-1.7 425.81-1.85 426.06-2 426.76-2L426.76-2Q428.21-2 428.91-2.53 429.61-3.05 429.79-3.83 429.96-4.6 430.01-5.85L430.01-5.85 430.01-25.65Q429.96-26.95 429.79-27.7 429.61-28.45 428.91-29 428.21-29.55 426.76-29.55L426.76-29.55 426.46-29.55Q425.96-29.55 425.76-29.73 425.56-29.9 425.51-30.6L425.51-30.6Q425.51-31.05 425.74-31.38 425.96-31.7 426.41-31.7L426.41-31.7Q429.66-31.55 432.36-31.55L432.36-31.55 440.96-31.55Q444.81-31.5 447.39-30.33 449.96-29.15 451.16-27.33 452.36-25.5 452.36-23.4L452.36-23.4Q452.36-20.65 450.19-18.35 448.01-16.05 444.26-15.05L444.26-15.05 445.11-13.7Q447.21-10.3 448.91-7.88 450.61-5.45 452.61-3.35L452.61-3.35Q454.01-2.2 455.61-2L455.61-2Q455.71-2 456.06-1.98 456.41-1.95 456.64-1.7 456.86-1.45 456.86-0.95L456.86-0.95Q456.86-0.5 456.64-0.18 456.41 0.15 455.96 0.15L455.96 0.15 454.66 0.1Q452.46 0 451.46 0L451.46 0Q449.46-0.4 448.04-1.43 446.61-2.45 445.21-4.35L445.21-4.35Q443.76-6.25 441.16-10.55L441.16-10.55 440.26-12Q439.51-13.15 438.81-13.58 438.11-14 436.41-14L436.41-14 434.96-14 434.96-5.85Q435.01-4.6 435.19-3.83 435.36-3.05 436.06-2.53 436.76-2 438.21-2L438.21-2 438.51-2Q438.96-2 439.19-1.83 439.41-1.65 439.46-0.95L439.46-0.95Q439.46-0.5 439.24-0.18 439.01 0.15 438.56 0.15L438.56 0.15Q435.36 0 432.31 0L432.31 0Q429.66 0 426.41 0.15L426.41 0.15ZM434.96-15.95L439.36-15.95Q446.81-15.95 446.81-22.95L446.81-22.95Q446.81-25.8 444.86-27.75 442.91-29.7 438.46-29.7L438.46-29.7Q437.01-29.7 436.26-29.35 435.51-29 435.24-28.15 434.96-27.3 434.96-25.55L434.96-25.55 434.96-15.95ZM470.16 1Q464.91 1 462.14-0.83 459.36-2.65 459.36-6.2L459.36-6.2Q459.36-8 460.59-9.18 461.81-10.35 463.76-10.35L463.76-10.35Q464.91-10.3 465.51-9.78 466.11-9.25 466.11-8.8L466.11-8.8Q466.11-8.75 465.61-8.45 465.11-8.15 464.71-7.55 464.31-6.95 464.31-5.9L464.31-5.9Q464.31-3.55 465.74-2.27 467.16-1 470.16-1L470.16-1Q472.21-1 473.76-1.8 475.31-2.6 476.14-3.93 476.96-5.25 476.96-6.7L476.96-6.7Q476.96-8.5 475.94-9.8 474.91-11.1 473.41-11.98 471.91-12.85 469.31-14L469.31-14Q466.31-15.35 464.46-16.45 462.61-17.55 461.31-19.38 460.01-21.2 460.01-23.9L460.01-23.9Q460.01-28.25 462.99-30.4 465.96-32.55 470.81-32.55L470.81-32.55Q474.61-32.55 477.44-30.95 480.26-29.35 480.26-26.25L480.26-26.25Q480.26-24.45 479.04-23.28 477.81-22.1 475.86-22.1L475.86-22.1Q474.71-22.15 474.11-22.68 473.51-23.2 473.51-23.65L473.51-23.65Q473.51-23.7 474.19-24 474.86-24.3 475.39-24.9 475.91-25.5 475.91-26.55L475.91-26.55Q475.91-28.4 474.49-29.45 473.06-30.5 470.86-30.5L470.86-30.5Q467.81-30.5 466.24-29.08 464.66-27.65 464.66-25.55L464.66-25.55Q464.66-23.8 465.61-22.63 466.56-21.45 468.66-20.3L468.66-20.3Q470.36-19.4 472.36-18.5L472.36-18.5Q475.56-17.05 477.44-15.85 479.31-14.65 480.59-12.7 481.86-10.75 481.86-7.85L481.86-7.85Q481.86-5.35 480.29-3.33 478.71-1.3 476.04-0.15 473.36 1 470.16 1L470.16 1Z" opacity="1" transform="matrix(1,0,0,1,0,0)" fill="#000000" class="undefined-text-1" data-fill-palette-color="secondary" id="text-1"></path></svg></g></svg></g></svg></g></svg></g><g><svg viewBox="0 0 98.46185772083786 107.37504476533053" height="107.37504476533053" width="98.46185772083786"><g><svg xmlns="http://www.w3.org/2000/svg" xmlns:xlink="http://www.w3.org/1999/xlink" version="1.1" x="0" y="0" viewBox="4 0.059999942779541016 91.64399719238281 99.94000244140625" enable-background="new 0 0 100 100" xml:space="preserve" width="98.46185772083786" height="107.37504476533053" class="icon-icon-0" data-fill-palette-color="accent" id="icon-0"><path fill="#000000" d="M50.122 41.041c7.869 0 14.251-6.389 14.251-14.253 0-7.875-6.383-14.25-14.251-14.25-7.868 0-14.249 6.374-14.249 14.25C35.873 34.652 42.254 41.041 50.122 41.041z" data-fill-palette-color="accent"></path><path fill="#000000" d="M27.8 100V87.354l-12.681 3.529c-0.931 0.37-1.942 0.577-2.999 0.577C7.636 91.461 4 87.814 4 83.336c0-1.688 0.512-3.249 1.387-4.544l20.342-27.893c2.209-3.026 5.293-6.396 11.797-6.396h24.594c6.501 0 9.587 3.371 11.793 6.396l20.341 27.893c0.875 1.295 1.39 2.856 1.39 4.544 0 4.479-3.64 8.125-8.12 8.125-1.056 0-2.071-0.207-2.999-0.577l-12.686-3.529V100H27.8zM49.822 91.165L49.822 91.165l16.433-5.437-0.37-0.104c-11.339-3.336-6.924-18.316 4.412-14.972l1.55 0.521V54.258l-22.025 7.195-22.024-7.195v16.916l1.542-0.521c11.345-3.345 15.758 11.636 4.414 14.974l-0.363 0.102L49.822 91.165 49.822 91.165z" data-fill-palette-color="accent"></path><g fill="#ffffff" data-fill-palette-color="accent"><path fill="#000000" d="M14.6 36.034c0.506 1.087 1.725 1.789 3.105 1.789h0.003c1.378 0 2.597-0.702 3.104-1.789l0.351-0.752h-6.915L14.6 36.034z" data-fill-palette-color="accent"></path><path fill="#000000" d="M21.483 31.167l-7.524-0.001c-0.514 0.001-0.827 0.227-0.998 0.416-0.218 0.24-0.337 0.567-0.336 0.919-0.001 0.377 0.133 0.721 0.376 0.964 0.243 0.244 0.575 0.373 0.96 0.373h7.522c0.787 0 1.336-0.549 1.336-1.336C22.817 31.716 22.269 31.167 21.483 31.167z" data-fill-palette-color="accent"></path><path fill="#000000" d="M22.519 27.223h-9.596c-0.786 0.002-1.334 0.551-1.334 1.337 0 0.787 0.549 1.336 1.334 1.336h9.595c0.787 0 1.336-0.55 1.336-1.335 0.001-0.377-0.133-0.72-0.376-0.965C23.234 27.352 22.903 27.223 22.519 27.223z" data-fill-palette-color="accent"></path><path fill="#000000" d="M26.435 3.586c-2.276-2.273-5.307-3.526-8.534-3.526-6.639 0-12.041 5.401-12.042 12.04 0.001 3.25 1.349 6.41 3.657 8.628 0.597 0.717 0.967 1.685 1.092 4.511 0.041 0.895 0.688 1.52 1.658 1.52 0.001 0 0.003 0 0.005 0 0.448-0.02 0.848-0.198 1.128-0.503 0.278-0.303 0.414-0.704 0.393-1.159-0.146-3.276-0.667-5.042-1.959-6.554-1.771-1.688-2.786-4.036-2.786-6.442 0-4.882 3.971-8.854 8.851-8.854 4.897 0 8.88 3.973 8.88 8.854 0 2.406-1.016 4.755-2.824 6.484-1.254 1.47-1.774 3.235-1.92 6.514-0.041 0.922 0.599 1.621 1.519 1.662l0.083 0.002c0.891 0 1.541-0.626 1.581-1.523 0.126-2.825 0.496-3.793 1.053-4.468 2.35-2.262 3.697-5.422 3.696-8.671C29.964 8.882 28.71 5.859 26.435 3.586zM23.633 26.225L23.633 26.225l0.001 0.008L23.633 26.225z" data-fill-palette-color="accent"></path></g></svg></g></svg></g></svg></g><defs></defs></svg><rect width="395.52" height="84.76830036773528" fill="none" stroke="none" visibility="hidden"></rect></g></svg></g></svg>